<?xml version="1.0" encoding="UTF-8" standalone="no"?>
<!DOCTYPE svg PUBLIC "-//W3C//DTD SVG 1.1//EN" "http://www.w3.org/Graphics/SVG/1.1/DTD/svg11.dtd">
<svg width="100%" height="100%" viewBox="0 0 11 11" version="1.1" xmlns="http://www.w3.org/2000/svg" xmlns:xlink="http://www.w3.org/1999/xlink" xml:space="preserve" style="fill-rule:evenodd;clip-rule:evenodd;stroke-linejoin:round;stroke-miterlimit:1.41421;">
    <g id="Artboard1" transform="matrix(0.6875,0,0,0.6875,0.6875,-37.125)">
        <rect x="-1" y="54" width="16" height="16" style="fill:none;"/>
        <clipPath id="_clip1">
            <rect x="-1" y="54" width="16" height="16"/>
        </clipPath>
        <g clip-path="url(#_clip1)">
            <g transform="matrix(5.64097e-17,0.921241,-0.925176,5.66507e-17,33.3609,-410.597)">
                <path d="M512,23.526C512,23.526 508.09,27.191 506.423,28.754C506.227,28.937 505.966,29.035 505.698,29.027C505.429,29.018 505.175,28.903 504.991,28.707C504.991,28.707 504.99,28.706 504.99,28.706C504.617,28.308 504.637,27.686 505.035,27.313C507.117,25.362 513.001,19.846 513.001,19.846C515.656,22.335 518.311,24.824 520.965,27.313C521.363,27.686 521.383,28.308 521.01,28.706C521.01,28.706 521.009,28.707 521.009,28.707C520.825,28.903 520.571,29.018 520.302,29.026C520.034,29.035 519.773,28.937 519.577,28.753C517.91,27.19 514.001,23.525 514.001,23.525C514.001,23.525 514.001,33.006 514.001,36.145C514.001,36.409 513.896,36.662 513.708,36.848C513.521,37.035 513.267,37.14 513.002,37.14C513.001,37.14 513,37.14 512.999,37.14C512.448,37.14 512.001,36.695 512.001,36.146C512.001,33.01 512,23.526 512,23.526Z" style="fill:rgb(130,130,130);fill-opacity:0.5;"/>
            </g>
        </g>
    </g>
</svg>
